<svg width="104" height="104" viewBox="0 0 104 104" fill="none" xmlns="http://www.w3.org/2000/svg">
<path d="M52.0002 104C80.719 104 104 80.7188 104 52C104 23.2812 80.719 0 52.0002 0C23.2814 0 0.000244141 23.2812 0.000244141 52C0.000244141 80.7188 23.2814 104 52.0002 104Z" fill="#EFEAD7"/>
<g opacity="0.54">
<path d="M52.0002 0C48.6951 0 45.4633 0.311982 42.3293 0.901224C66.4262 5.43423 84.6584 26.5858 84.6584 51.9995C84.6584 77.4132 66.4262 98.5653 42.3293 103.098C45.4633 103.688 48.6951 103.999 52.0002 103.999C80.7191 103.999 104 80.7183 104 51.9995C104 23.2807 80.7191 0 52.0002 0Z" fill="#E5E0CF"/>
</g>
<mask id="mask0_7_33" style="mask-type:luminance" maskUnits="userSpaceOnUse" x="0" y="0" width="105" height="104">
<path d="M52.0002 104C80.719 104 104 80.7188 104 52C104 23.2812 80.719 0 52.0002 0C23.2814 0 0.000244141 23.2812 0.000244141 52C0.000244141 80.7188 23.2814 104 52.0002 104Z" fill="white"/>
</mask>
<g mask="url(#mask0_7_33)">
<path d="M38.6991 26.8743C38.2903 26.8743 37.8942 26.9266 37.5123 27.0166C39.7969 27.5535 41.5001 29.6 41.5001 32.0489C41.5001 34.4973 39.7974 36.5438 37.5123 37.0812C37.8937 37.1706 38.2898 37.2235 38.6991 37.2235C41.5568 37.2235 43.8732 34.9071 43.8732 32.0494C43.8732 29.1907 41.5568 26.8743 38.6991 26.8743Z" fill="#DDD8CA"/>
<path d="M41.5001 32.0484C41.5001 29.6 39.7974 27.5535 37.5123 27.0161C35.2277 27.553 33.5245 29.5995 33.5245 32.0484C33.5245 34.4968 35.2272 36.5433 37.5123 37.0807C39.7969 36.5437 41.5001 34.4973 41.5001 32.0484Z" fill="#E5E0CF"/>
<path d="M38.0804 87.5672C37.8071 87.5672 37.5425 87.6024 37.2878 87.6621C38.8139 88.021 39.9518 89.3877 39.9518 91.0234C39.9518 92.6591 38.8144 94.0264 37.2878 94.3848C37.5425 94.445 37.8071 94.4797 38.0804 94.4797C39.9895 94.4797 41.5372 92.932 41.5372 91.0229C41.5367 89.1149 39.9895 87.5672 38.0804 87.5672Z" fill="#DDD8CA"/>
<path d="M39.9514 91.0239C39.9514 89.3882 38.814 88.021 37.2873 87.6626C35.7612 88.0215 34.6233 89.3882 34.6233 91.0239C34.6233 92.6596 35.7607 94.0269 37.2873 94.3853C38.814 94.0269 39.9514 92.6596 39.9514 91.0239Z" fill="#E5E0CF"/>
<path d="M29.5197 68.0675C28.9456 68.0675 28.3901 68.1408 27.8547 68.267C31.061 69.0205 33.4508 71.8924 33.4508 75.3291C33.4508 78.7653 31.061 81.6376 27.8547 82.3912C28.3901 82.5173 28.9461 82.5907 29.5197 82.5907C33.53 82.5907 36.7813 79.3398 36.7813 75.3291C36.7808 71.3183 33.53 68.0675 29.5197 68.0675Z" fill="#DDD8CA"/>
<path d="M33.4502 75.3286C33.4502 71.8924 31.0605 69.0205 27.8541 68.2665C24.6478 69.02 22.2581 71.8919 22.2581 75.3286C22.2581 78.7648 24.6478 81.6372 27.8541 82.3907C31.0605 81.6372 33.4502 78.7653 33.4502 75.3286Z" fill="#E5E0CF"/>
<path d="M19.056 29.3848C18.1812 29.3848 17.3343 29.4968 16.5181 29.6885C21.4047 30.8371 25.0467 35.2137 25.0467 40.4508C25.0467 45.688 21.4047 50.0645 16.5181 51.2132C17.3343 51.4049 18.1812 51.5173 19.056 51.5173C25.168 51.5173 30.1225 46.5628 30.1225 40.4508C30.1225 34.3393 25.168 29.3848 19.056 29.3848Z" fill="#DDD8CA"/>
<path d="M25.0467 40.4508C25.0467 35.2137 21.4047 30.8371 16.5181 29.6885C11.6316 30.8371 7.9895 35.2137 7.9895 40.4508C7.9895 45.688 11.6316 50.0645 16.5181 51.2132C21.4047 50.0645 25.0467 45.688 25.0467 40.4508Z" fill="#E5E0CF"/>
<path d="M71.2903 63.6283C70.2086 63.6283 69.1612 63.7667 68.1519 64.0044C74.1949 65.4249 78.6991 70.8376 78.6991 77.3139C78.6991 83.7907 74.1949 89.2034 68.1519 90.6239C69.1612 90.8611 70.2086 91 71.2903 91C78.8487 91 84.9759 84.8728 84.9759 77.3144C84.9759 69.7555 78.8487 63.6283 71.2903 63.6283Z" fill="#DDD8CA"/>
<path d="M78.6991 77.3139C78.6991 70.8372 74.195 65.4244 68.1519 64.0044C62.1089 65.4249 57.6047 70.8376 57.6047 77.3139C57.6047 83.7907 62.1089 89.2034 68.1519 90.6239C74.195 89.2034 78.6991 83.7907 78.6991 77.3139Z" fill="#E5E0CF"/>
<path d="M76.7855 40.9247C76.1044 40.9247 75.4452 41.0117 74.81 41.1614C78.6139 42.0553 81.4491 45.4626 81.4491 49.5394C81.4491 53.6161 78.6139 57.023 74.81 57.9174C75.4452 58.0665 76.1044 58.154 76.7855 58.154C81.543 58.154 85.4002 54.2973 85.4002 49.5394C85.3997 44.7814 81.543 40.9247 76.7855 40.9247Z" fill="#DDD8CA"/>
<path d="M81.4486 49.5389C81.4486 45.4621 78.6135 42.0553 74.8095 41.1609C71.0056 42.0548 68.1704 45.4621 68.1704 49.5389C68.1704 53.6156 71.0056 57.0225 74.8095 57.9169C78.6135 57.023 81.4486 53.6156 81.4486 49.5389Z" fill="#E5E0CF"/>
<path d="M92.458 54.909C92.0218 54.909 91.5998 54.9648 91.1924 55.0606C93.6286 55.6332 95.4448 57.8156 95.4448 60.4269C95.4448 63.0381 93.6291 65.22 91.1924 65.7926C91.5993 65.8885 92.0218 65.9442 92.458 65.9442C95.5054 65.9442 97.9753 63.4738 97.9753 60.4269C97.9758 57.3794 95.5054 54.909 92.458 54.909Z" fill="#DDD8CA"/>
<path d="M95.4452 60.4264C95.4452 57.8151 93.6295 55.6332 91.1929 55.0601C88.7567 55.6328 86.9406 57.8151 86.9406 60.4264C86.9406 63.0376 88.7562 65.2195 91.1929 65.7922C93.6291 65.2195 95.4452 63.0376 95.4452 60.4264Z" fill="#E5E0CF"/>
<path d="M90.1577 31.8435C89.74 31.8435 89.3361 31.8968 88.9464 31.9887C91.2784 32.5369 93.0168 34.6259 93.0168 37.1252C93.0168 39.6244 91.2784 41.7134 88.9464 42.2616C89.3361 42.353 89.74 42.4068 90.1577 42.4068C93.0745 42.4068 95.4388 40.042 95.4388 37.1252C95.4388 34.2083 93.0745 31.8435 90.1577 31.8435Z" fill="#DDD8CA"/>
<path d="M93.0168 37.1252C93.0168 34.6259 91.2784 32.5369 88.9464 31.9887C86.6144 32.5369 84.876 34.6259 84.876 37.1252C84.876 39.6244 86.6144 41.7134 88.9464 42.2616C91.2784 41.7134 93.0168 39.6244 93.0168 37.1252Z" fill="#E5E0CF"/>
<path d="M33.7997 10.1462C33.2736 10.1462 32.7645 10.2137 32.2736 10.3291C35.2124 11.0196 37.4027 13.6518 37.4027 16.8015C37.4027 19.9511 35.2124 22.5829 32.2736 23.2738C32.7645 23.3892 33.2736 23.4567 33.7997 23.4567C37.475 23.4567 40.455 20.4773 40.455 16.8015C40.455 13.1257 37.4755 10.1462 33.7997 10.1462Z" fill="#DDD8CA"/>
<path d="M37.4026 16.8015C37.4026 13.6523 35.2124 11.02 32.2735 10.3291C29.3351 11.0196 27.1449 13.6518 27.1449 16.8015C27.1449 19.9511 29.3351 22.5829 32.2735 23.2738C35.2124 22.5829 37.4026 19.9506 37.4026 16.8015Z" fill="#E5E0CF"/>
</g>
</svg>
