<svg xmlns="http://www.w3.org/2000/svg" version="2.0" viewBox="0 0 256 256"><path fill="#98D0F5" d="M128 247.99h98.182c12.05 0 21.818-9.768 21.818-21.818v-38.19H128v60.008Z"/><path fill="url(#a)" d="M128 188.026h120v-60.008H128v60.008Z"/><path fill="url(#b)" d="M128 128.008h120V68H128v60.008Z"/><path fill="url(#c)" d="M128 68.008h120v-38.19C248 17.768 238.232 8 226.182 8H128v60.008Z"/><path fill="url(#d)" d="M128 248V8h43.637c-3.135 18.32-10.523 63.681-15.859 113.77-5.667 53.189-8.251 107.9-9.01 126.23H128Z"/><path fill="url(#e)" d="M38.545 8H128v240H38.546c-8.122 0-12.183 0-15.47-1.068a21.818 21.818 0 0 1-14.008-14.009C8 229.637 8 225.577 8 217.454V38.545c0-8.122 0-12.183 1.068-15.469A21.819 21.819 0 0 1 23.076 9.068C26.363 8 30.424 8 38.546 8Z"/><path fill="#fff" d="M104.45 56.824H74.269c.119-1.506.238-4.084.238-7.217v-7.1h-12.97v7.1c0 3.133.16 5.71.239 7.217H31.555V69.04h15.03c-4.877 3.61-7.495 9.599-7.495 17.134 0 14.476 11.502 26.334 28.912 26.334 17.41 0 28.913-11.819 28.913-26.334 0-7.575-3.014-13.763-7.496-17.134h15.031V56.824Zm-36.448 43.508c-9.399 0-15.943-7.338-15.943-15.983 0-8.646 6.544-15.984 15.943-15.984 9.4 0 15.943 7.338 15.943 15.984 0 8.645-6.543 15.983-15.943 15.983Z"/><defs><linearGradient id="a" x1="188" x2="188" y1="188.026" y2="128.018" gradientUnits="userSpaceOnUse"><stop stop-color="#37A5FA"/><stop offset="0.115015" stop-color="#42ADFF"/></linearGradient><linearGradient id="b" x1="188" x2="188" y1="128.008" y2="68" gradientUnits="userSpaceOnUse"><stop stop-color="#007BD9"/><stop offset="0.125267" stop-color="#0082E5"/></linearGradient><linearGradient id="c" x1="188" x2="188" y1="68.0092" y2="8.00111" gradientUnits="userSpaceOnUse"><stop stop-color="#00458A"/><stop offset="0.114689" stop-color="#004D99"/></linearGradient><linearGradient id="d" x1="130.683" x2="156.849" y1="70.6086" y2="73.2329" gradientUnits="userSpaceOnUse"><stop stop-opacity="0.49"/><stop offset="1" stop-opacity="0"/></linearGradient><linearGradient id="e" x1="68" x2="68" y1="8" y2="248" gradientUnits="userSpaceOnUse"><stop stop-color="#42ADFF"/><stop offset="1" stop-color="#33A7FF"/></linearGradient></defs></svg>